<svg width="131px" height="19px" viewBox="0 0 131 19" version="1.1" xmlns="http://www.w3.org/2000/svg" xmlns:xlink="http://www.w3.org/1999/xlink">
    <!-- Generator: sketchtool 39.1 (31720) - http://www.bohemiancoding.com/sketch -->
    <title>8F06E032-FAB7-4047-834C-75456A497C40</title>
    <desc>Created with sketchtool.</desc>
    <defs>
        <polygon id="path-1" points="11.7182462 0.127212737 0.180945833 0.127212737 0.180945833 11.5172698 11.7182462 11.5172698"></polygon>
    </defs>
    <g id="Symbols" stroke="none" stroke-width="1" fill="none" fill-rule="evenodd">
        <g id="Nav-Bar" transform="translate(-20.000000, -18.000000)">
            <g id="babylon-logo" transform="translate(20.000000, 18.000000)">
                <g id="Page-1">
                    <path d="M17.5711216,11.4526655 L17.4986272,11.5542991 C16.1504964,13.4638032 12.1258752,17.2799227 10.4988389,17.2799227 C8.87127544,17.2799227 4.84639056,13.4638032 3.49852336,11.5542991 L3.42655627,11.4526655 C2.90486075,10.7217962 1.31815771,8.49714905 1.31815771,5.83602876 C1.31815771,3.34167166 3.35432556,1.31320101 5.85762048,1.31320101 C7.15171007,1.31320101 8.40836622,2.12653266 9.30571415,3.5459894 L10.4988389,5.43238306 L11.6911728,3.5459894 C12.5887844,2.12653266 13.8454405,1.31320101 15.1392665,1.31320101 C17.6425614,1.31320101 19.6795201,3.34167166 19.6795201,5.83602876 C19.6795201,8.49714905 18.0922899,10.7217962 17.5711216,11.4526655 M15.1392665,0.000105047677 C13.2950109,0.000105047677 11.5685915,1.15352855 10.4988389,2.84637187 C9.42829546,1.15352855 7.70187608,0.000105047677 5.85762048,0.000105047677 C2.62226469,0.000105047677 7.90847171e-05,2.6129034 7.90847171e-05,5.83602876 C7.90847171e-05,9.05941674 1.97245193,11.6748413 2.42033505,12.3093293 C3.48112472,13.8120363 7.94914763,18.5935439 10.4988389,18.5935439 C13.048003,18.5935439 17.5165531,13.8120363 18.5765519,12.3093293 C19.0246987,11.6748413 20.9975988,9.05941674 20.9975988,5.83602876 C20.9975988,2.6129034 18.3748859,0.000105047677 15.1392665,0.000105047677" id="Fill-1" fill="#9012FE"></path>
                    <path d="M84.5241114,3.45199799 L84.5193663,3.45199799 C84.1574219,3.45199799 83.8629632,3.74298005 83.860327,4.10408145 L83.860327,5.34784595 C83.860327,7.69329796 81.9712567,9.46203823 79.4663801,9.46203823 C76.9617671,9.46203823 75.0729605,7.69329796 75.0729605,5.35231047 L75.0732241,4.1130105 C75.0755966,3.75033339 74.7827195,3.45436156 74.4186662,3.45199799 L74.4141848,3.45199799 C74.0519768,3.45199799 73.757518,3.74298005 73.7551455,4.10408145 L73.7548818,5.34784595 C73.7548818,8.22930374 75.8851605,10.4481733 78.8073408,10.7402058 L78.8073408,14.2225363 C78.8073408,14.5852135 79.1025904,14.8790843 79.4663801,14.8790843 C79.8304334,14.8790843 80.1254194,14.5852135 80.1254194,14.2225363 L80.1254194,10.7402058 C83.0478633,10.4484359 85.1784056,8.22956635 85.1784056,5.35231047 L85.1784056,4.1130105 C85.1810418,3.75033339 84.8881647,3.45436156 84.5241114,3.45199799" id="Fill-3" fill="#9012FE"></path>
                    <path d="M64.6736365,13.5561927 C62.2507444,13.5561927 60.2796896,11.592589 60.2796896,9.17911857 C60.2796896,6.76538557 62.2507444,4.80204448 64.6736365,4.80204448 C67.0960014,4.80204448 69.0670561,6.76538557 69.0670561,9.17911857 C69.0670561,11.592589 67.0960014,13.5561927 64.6736365,13.5561927 M64.6736365,3.48894851 C62.9087292,3.48894851 61.3286165,4.29072491 60.2796896,5.54762037 L60.2796896,3.46610064 C60.2796896,3.10342353 59.9847036,2.80955266 59.6206503,2.80955266 C59.256597,2.80955266 58.961611,3.10342353 58.961611,3.46610064 L58.961611,9.17911857 C58.961611,12.3166301 61.5242194,14.8692886 64.6736365,14.8692886 C67.8230535,14.8692886 70.3851348,12.3166301 70.3851348,9.17911857 C70.3851348,6.04134445 67.8230535,3.48894851 64.6736365,3.48894851" id="Fill-5" fill="#9012FE"></path>
                    <path d="M109.39151,13.5561927 C106.969145,13.5561927 104.997563,11.592589 104.997563,9.17911857 C104.997563,6.76538557 106.969145,4.80204448 109.39151,4.80204448 C111.814402,4.80204448 113.785457,6.76538557 113.785457,9.17911857 C113.785457,11.592589 111.814402,13.5561927 109.39151,13.5561927 M109.39151,3.48894851 C106.242093,3.48894851 103.679484,6.04134445 103.679484,9.17911857 C103.679484,12.3166301 106.242093,14.8692886 109.39151,14.8692886 C112.540927,14.8692886 115.103535,12.3166301 115.103535,9.17911857 C115.103535,6.04134445 112.540927,3.48894851 109.39151,3.48894851" id="Fill-7" fill="#9012FE"></path>
                    <g id="Group-11" transform="translate(118.890692, 3.361736)">
                        <mask id="mask-2" fill="white">
                            <use xlink:href="#path-1"></use>
                        </mask>
                        <g id="Clip-10"></g>
                        <path d="M5.94859426,0.127212737 C2.79970444,0.127212737 0.180945833,2.6798713 0.180945833,5.8173828 L0.180945833,10.8607218 C0.180945833,11.2236615 0.47645906,11.5172698 0.839985144,11.5172698 C1.20403846,11.5172698 1.49902445,11.2236615 1.49902445,10.8607218 L1.49902445,5.8173828 C1.49902445,3.40364979 3.52622937,1.4403087 5.94859426,1.4403087 C8.37148639,1.4403087 10.400273,3.40364979 10.400273,5.8173828 L10.400273,10.8607218 C10.400273,11.2236615 10.695259,11.5172698 11.0593123,11.5172698 C11.4233656,11.5172698 11.7183516,11.2236615 11.7183516,10.8607218 L11.7183516,5.8173828 C11.7183516,2.6798713 9.09853855,0.127212737 5.94859426,0.127212737" id="Fill-9" fill="#9012FE" mask="url(#mask-2)"></path>
                    </g>
                    <path d="M49.1378128,13.5561927 C46.7154479,13.5561927 44.7443932,11.592589 44.7443932,9.17911857 C44.7443932,6.76538557 46.7154479,4.80204448 49.1378128,4.80204448 C51.5601777,4.80204448 53.5317597,6.76538557 53.5317597,9.17911857 C53.5317597,11.592589 51.5601777,13.5561927 49.1378128,13.5561927 M49.1378128,3.48894851 C45.9883958,3.48894851 43.4263145,6.04134445 43.4263145,9.17911857 C43.4263145,12.3166301 45.9883958,14.8692886 49.1378128,14.8692886 C50.9032473,14.8692886 52.4828328,14.0672496 53.5317597,12.8103542 L53.5317597,14.2227202 C53.5317597,14.5851347 53.8267457,14.8792682 54.190799,14.8792682 C54.5548523,14.8792682 54.8498383,14.5851347 54.8498383,14.2227202 L54.8498383,9.17911857 C54.8498383,6.04134445 52.2877571,3.48894851 49.1378128,3.48894851" id="Fill-12" fill="#9012FE"></path>
                    <path d="M34.0035814,13.5561927 C31.5806893,13.5561927 29.6096345,11.592589 29.6096345,9.17911857 C29.6096345,6.76538557 31.5806893,4.80204448 34.0035814,4.80204448 C36.4259463,4.80204448 38.3975283,6.76538557 38.3975283,9.17911857 C38.3975283,11.592589 36.4259463,13.5561927 34.0035814,13.5561927 M34.0035814,3.48894851 C32.2386741,3.48894851 30.6585615,4.29072491 29.6096345,5.54762037 L29.6096345,3.46610064 C29.6096345,3.10342353 29.3146485,2.80955266 28.9505952,2.80955266 C28.5865419,2.80955266 28.2915559,3.10342353 28.2915559,3.46610064 L28.2915559,9.17911857 C28.2915559,12.3166301 30.8541643,14.8692886 34.0035814,14.8692886 C37.1529984,14.8692886 39.7156069,12.3166301 39.7156069,9.17911857 C39.7156069,6.04134445 37.1529984,3.48894851 34.0035814,3.48894851" id="Fill-14" fill="#9012FE"></path>
                    <path d="M95.3776453,14.8792682 C97.0911475,14.8792682 98.6997306,14.1226623 99.789518,12.8035261 C99.8256334,12.7599313 99.8530494,12.7121346 99.8754568,12.6632874 C100.076332,12.409072 100.2577,12.14015 100.413233,11.8557334 L100.410597,11.8544203 C100.458838,11.7630288 100.489418,11.6603447 100.489418,11.549782 C100.489418,11.1878928 100.194695,10.8945471 99.8314329,10.8945471 C99.6078868,10.8945471 99.4112295,11.0064229 99.2923388,11.1763375 L99.2902299,11.1750244 C99.1130801,11.5185303 98.8911156,11.8352491 98.6332995,12.1188778 C98.6177461,12.1359481 98.6021928,12.1524931 98.5869031,12.1693007 C98.2573834,12.5206852 97.8711864,12.8184954 97.4422836,13.0469741 C97.4417564,13.0474993 97.4412292,13.0474993 97.4401747,13.0477619 C97.1828858,13.1848491 96.9097799,13.2964623 96.6250749,13.3805004 C96.6087307,13.3854902 96.5913321,13.3899547 96.574197,13.3949445 C96.393093,13.4461552 96.2067167,13.4865986 96.0166498,13.5144362 C96.0119047,13.5152241 96.0074232,13.5160119 96.0032054,13.5167998 C95.9069857,13.5301934 95.8091842,13.5401729 95.7113828,13.5480515 C95.6910844,13.5493646 95.6710496,13.5501524 95.6510148,13.5509403 C95.5608582,13.5567179 95.4699108,13.5606572 95.3781725,13.5606572 C92.9552804,13.5606572 90.9842256,11.5973161 90.9842256,9.18384572 L90.9842256,4.10846719 C90.9842256,3.74579008 90.6892396,3.4519192 90.3251863,3.4519192 C89.961133,3.4519192 89.666147,3.74579008 89.666147,4.10846719 L89.666147,9.18883548 C89.666147,12.3266096 92.2287555,14.8792682 95.3776453,14.8792682" id="Fill-16" fill="#9012FE"></path>
                </g>
            </g>
        </g>
    </g>
</svg>